<svg width="22" height="19" viewBox="0 0 22 19" fill="none" xmlns="http://www.w3.org/2000/svg">
<path fill-rule="evenodd" clip-rule="evenodd" d="M3.01398 18.5C1.36768 18.4879 0.0413208 17.1464 0.0479736 15.5V3.534C0.0479736 3.50732 0.0479736 3.48099 0.0479736 3.45499C0.0664673 1.82642 1.38538 0.512421 3.01398 0.499969L18.834 0.5C20.4626 0.51239 21.7816 1.82642 21.8 3.45496C21.8 3.48099 21.8 3.50699 21.8 3.534V15.5C21.8067 17.1463 20.4804 18.4879 18.8341 18.5H3.01398ZM2.02496 15.5C2.02496 16.0481 2.46606 16.494 3.01404 16.5H18.834C19.382 16.494 19.8231 16.048 19.823 15.5V5.42099L11.491 11.321C11.1512 11.5613 10.6969 11.5613 10.3571 11.321L2.02509 5.42099L2.02496 15.5ZM10.925 9.27899L19.719 3.05399C19.5527 2.7171 19.2106 2.50275 18.835 2.49997L3.01501 2.5C2.63934 2.50275 2.2973 2.7171 2.13104 3.05396L10.925 9.27899Z" fill="#809FB8"/>
</svg>
