<svg width="152" height="140" viewBox="0 0 152 140" fill="none" xmlns="http://www.w3.org/2000/svg">
<path d="M87.4092 79.0665C86.1835 79.3411 84.9896 79.8496 83.9017 80.5602C81.0675 82.3661 79.4186 84.944 80.2189 86.3176C81.0193 87.6911 83.9657 87.3398 86.7999 85.5339C87.9024 84.8484 88.8818 83.9724 89.6779 82.9599C90.0473 82.4708 90.1136 81.8612 89.8472 81.4056L88.8075 79.6212C88.5429 79.1641 87.9942 78.9468 87.4092 79.0665Z" fill="#D5D6DB"/>
<path d="M80.2921 54.7083C79.4033 54.9075 78.5376 55.2764 77.7487 55.7917C75.6941 57.1009 74.4977 58.9701 75.0776 59.9653C75.6575 60.9604 77.7947 60.7055 79.8491 59.3964C80.6485 58.8991 81.3586 58.2636 81.936 57.5294C82.2035 57.1748 82.2515 56.7332 82.0584 56.4029L81.3055 55.1109C81.114 54.7795 80.7164 54.6216 80.2921 54.7083Z" fill="#D5D6DB"/>
<path d="M68.7287 55.7284C68.5309 55.7063 68.3199 55.7591 68.1369 55.8759L63.3108 58.9515C62.9071 59.2079 62.7455 59.7018 62.9503 60.0548C62.9971 60.1357 63.0612 60.2048 63.139 60.258L75.034 68.4562L91.1267 58.2008L68.7287 55.7284Z" fill="#029BC5"/>
<path d="M119.602 54.5691L75.8077 82.139L49.8977 92.4491L36.6839 95.0757L35.2302 92.6057L108.229 47.5345C110.404 46.1855 112.828 45.3575 115.254 45.1346C116.317 45.0426 117.366 45.078 118.378 45.2393C119.275 45.3753 120.126 45.6376 120.905 46.0185C121.775 46.4501 123.431 46.4998 123.967 47.3597C123.969 47.3583 125.234 51.3057 119.602 54.5691V54.5691Z" fill="#E1E6E9"/>
<path d="M76.3883 78.4911L57.4424 108.694C57.2057 109.118 57.3462 109.593 57.7558 109.755C58.0072 109.854 58.3148 109.815 58.5733 109.651L63.3956 106.592C64.3232 106.003 65.1444 105.255 65.8087 104.395L102.551 61.1984L76.3883 78.4911Z" fill="#029BC5"/>
<path d="M28.5802 77.4826C28.2641 77.3746 27.888 77.4306 27.5705 77.6328L23.5843 80.1716C23.0411 80.5172 22.8247 81.1818 23.1007 81.6562C23.1532 81.7463 23.2216 81.8257 23.3034 81.8911L34.4721 90.8358L46.2149 83.5011L28.5802 77.4826Z" fill="#029BC5"/>
<path d="M38.2155 92.4483L32.2043 100.867C32.1161 100.988 32.1369 101.14 32.2505 101.206C32.3325 101.254 32.4444 101.245 32.5354 101.184L36.2606 98.8238C36.2896 98.8054 36.3158 98.7824 36.3374 98.7562L45.1209 88.0767L38.2155 92.4483Z" fill="#029BC5"/>
<path d="M117.659 45.6024C116.617 45.435 115.537 45.3993 114.442 45.4955C113.376 46.9854 112.695 48.6591 112.467 50.3496C112.45 50.6892 112.724 50.9336 113.078 50.8956C113.189 50.8836 113.298 50.8449 113.397 50.7828L120.262 46.4114C119.459 46.0156 118.583 45.7433 117.659 45.6024Z" fill="#029BC5"/>
<path d="M102.698 53.6409L107.18 50.8101L111.355 57.911L106.873 60.7418L102.698 53.6409Z" fill="#D5D6DB"/>
<path d="M99.8779 56.4493C99.3378 56.7914 99.1219 57.4491 99.3961 57.918L99.8404 58.6778C100.133 59.1349 100.8 59.2152 101.331 58.8573C101.836 58.5163 102.039 57.8967 101.796 57.4392L101.351 56.6794C101.077 56.2108 100.418 56.1077 99.8779 56.4493V56.4493Z" fill="#3A556A"/>
<path d="M95.8493 58.9512C95.3092 59.2934 95.0933 59.951 95.3676 60.42L95.8118 61.1798C96.104 61.6368 96.7712 61.7172 97.302 61.3592C97.8072 61.0183 98.0106 60.3986 97.7672 59.9411L97.3229 59.1813C97.0487 58.7129 96.3892 58.6098 95.8493 58.9512V58.9512Z" fill="#3A556A"/>
<path d="M91.8194 61.4538C91.2799 61.7964 91.0648 62.4532 91.3387 62.9218L91.783 63.6816C92.0752 64.1386 92.7424 64.219 93.2732 63.861C93.7784 63.5201 93.9818 62.9005 93.7384 62.4429L93.2941 61.6832C93.0199 61.2142 92.3597 61.1115 91.8194 61.4538V61.4538Z" fill="#3A556A"/>
<path d="M87.7908 63.9556C87.2513 64.2982 87.0362 64.9551 87.3102 65.4237L87.7544 66.1835C88.0467 66.6405 88.7138 66.7208 89.2446 66.3629C89.7498 66.022 89.9533 65.4023 89.7098 64.9448L89.2655 64.185C88.9911 63.7161 88.3309 63.6135 87.7908 63.9556V63.9556Z" fill="#3A556A"/>
<path d="M83.7626 66.4575C83.2228 66.8003 83.0075 67.4574 83.2817 67.9262L83.7262 68.6863C84.0002 69.1549 84.6601 69.2575 85.2 68.9155C85.74 68.5735 85.9556 67.9164 85.6816 67.4479L85.237 66.6877C84.9637 66.2187 84.3041 66.1154 83.7637 66.4568C83.7633 66.4571 83.7631 66.4573 83.7626 66.4575Z" fill="#3A556A"/>
<path d="M79.734 68.9594C79.1942 69.3021 78.979 69.9593 79.2531 70.428L79.6976 71.1882C79.9716 71.6567 80.6315 71.7594 81.1715 71.4174C81.7114 71.0754 81.927 70.4183 81.653 69.9497L81.2085 69.1896C80.9351 68.7206 80.2755 68.6173 79.7352 68.9587C79.7347 68.9589 79.7343 68.9592 79.734 68.9594Z" fill="#3A556A"/>
<path d="M75.7052 71.4613C75.1654 71.8041 74.9501 72.4612 75.2243 72.93L75.6688 73.6901C75.9435 74.1582 76.6037 74.2598 77.1431 73.9174C77.6815 73.5755 77.8967 72.9198 77.6239 72.4518L77.1794 71.6917C76.9055 71.2228 76.2456 71.1196 75.7052 71.4613Z" fill="#3A556A"/>
<path d="M71.6764 73.9632C71.1366 74.3059 70.9213 74.963 71.1955 75.4318L71.64 76.1919C71.9147 76.6601 72.5749 76.7617 73.1143 76.4192C73.6527 76.0774 73.8679 75.4216 73.5951 74.9536L73.1506 74.1935C72.8767 73.7246 72.2168 73.6214 71.6764 73.9632Z" fill="#3A556A"/>
<path d="M67.6478 76.465C67.108 76.8077 66.8928 77.4649 67.1669 77.9336L67.6114 78.6937C67.8861 79.1619 68.5463 79.2635 69.0857 78.921C69.6242 78.5792 69.8393 77.9234 69.5665 77.4554L69.122 76.6953C68.8479 76.2266 68.188 76.1234 67.6478 76.465Z" fill="#3A556A"/>
<path d="M63.6181 78.9674C63.0781 79.3094 62.8625 79.9665 63.1365 80.4351L63.1371 80.4361L63.5816 81.1962C63.8563 81.6644 64.5165 81.766 65.0559 81.4235C65.5944 81.0816 65.8095 80.4259 65.5367 79.9579L65.0922 79.1978C64.8183 78.7288 64.1585 78.6257 63.6181 78.9674Z" fill="#3A556A"/>
<path d="M59.5905 81.4687C59.0505 81.8107 58.8349 82.4677 59.109 82.9363L59.1095 82.9373L59.5541 83.6974C59.8288 84.1655 60.489 84.2671 61.0284 83.9247C61.5668 83.5828 61.782 82.9271 61.5092 82.4591L61.0647 81.699C60.7905 81.2302 60.1307 81.1271 59.5905 81.4687Z" fill="#3A556A"/>
</svg>
